<?xml version="1.0" encoding="utf-8"?>
<!-- Svg Vector Icons : http://www.onlinewebfonts.com/icon -->
<!DOCTYPE svg PUBLIC "-//W3C//DTD SVG 1.1//EN" "http://www.w3.org/Graphics/SVG/1.1/DTD/svg11.dtd">
<svg version="1.1" xmlns="http://www.w3.org/2000/svg" xmlns:xlink="http://www.w3.org/1999/xlink" x="0px" y="0px" viewBox="0 0 1000 1000" enable-background="new 0 0 1000 1000" xml:space="preserve">
<metadata> Svg Vector Icons : http://www.onlinewebfonts.com/icon </metadata>
<g><g><path d="M798.6,142.9H201.4c-28.7,0-52.1,23.4-52.1,52.1V805c0,28.7,23.4,52.1,52.1,52.1h597.3c28.7,0,52.1-23.4,52.1-52.1V194.9C850.7,166.2,827.4,142.9,798.6,142.9z M625.5,378.2L426.8,530.9c-1.5,1.1-3.2,1.7-4.9,1.7c-1.7,0-3.4-0.5-4.9-1.6c-2.9-2.2-4-6-2.7-9.4l40-101.1H220.2c-4.5,0-8.1-3.6-8.1-8.1v-81.1c0-4.5,3.6-8.1,8.1-8.1l234.1,0L414.3,222c-1.3-3.4-0.2-7.2,2.7-9.4c2.9-2.2,6.9-2.2,9.8,0l198.7,152.7c2,1.5,3.2,3.9,3.2,6.4C628.6,374.3,627.4,376.7,625.5,378.2z M896.4,1.5H103.6C51.9,1.5,10,43.4,10,95.1v809.7c0,51.7,41.9,93.7,93.6,93.7h792.7c51.7,0,93.6-41.9,93.6-93.7V95.1C990,43.4,948.1,1.5,896.4,1.5z M887.7,805c0,49.1-39.9,89-89,89H201.4c-49.1,0-89-39.9-89-89V194.9c0-49.1,39.9-89,89-89h597.3c49.1,0,89,39.9,89,89V805z"/></g><g></g><g></g><g></g><g></g><g></g><g></g><g></g><g></g><g></g><g></g><g></g><g></g><g></g><g></g><g></g></g>
</svg>